<?xml version="1.0" standalone="no"?>
<!DOCTYPE svg PUBLIC "-//W3C//DTD SVG 20010904//EN"
 "http://www.w3.org/TR/2001/REC-SVG-20010904/DTD/svg10.dtd">
<svg version="1.0" xmlns="http://www.w3.org/2000/svg"
 width="418.000000pt" height="418.000000pt" viewBox="0 0 418.000000 418.000000"
 preserveAspectRatio="xMidYMid meet">
<metadata>
Created by potrace 1.14, written by Peter Selinger 2001-2017
</metadata>
<g transform="translate(0.000000,418.000000) scale(0.100000,-0.100000)"
fill="#000000" stroke="none">
<path d="M0 2090 l0 -2090 2090 0 2090 0 0 2090 0 2090 -2090 0 -2090 0 0
-2090z m2335 560 c136 -228 262 -439 282 -468 l35 -53 68 115 c61 102 104 153
391 466 322 350 323 351 342 331 23 -23 53 13 -382 -460 -113 -122 -208 -228
-210 -234 -5 -14 -34 -34 391 271 l352 253 20 -21 c18 -17 19 -22 6 -34 -8 -7
-168 -123 -355 -256 -187 -134 -349 -252 -360 -262 -20 -20 -20 -20 15 -5 36
15 310 136 625 275 l180 80 13 -25 c8 -14 12 -26 10 -27 -2 -2 -191 -86 -422
-187 -230 -101 -414 -185 -408 -187 10 -3 531 103 775 158 117 26 127 26 127
-5 0 -17 -7 -26 -22 -30 -13 -3 -162 -35 -333 -71 -496 -104 -533 -112 -669
-144 -71 -16 -131 -32 -134 -34 -2 -3 86 -159 198 -346 111 -188 200 -343 198
-345 -1 -1 -225 -102 -496 -223 l-492 -220 -493 220 c-270 121 -493 222 -495
223 -2 2 63 115 144 252 81 136 171 289 200 338 l53 90 -592 5 -592 5 -3 28
-3 27 614 0 615 0 273 460 c151 253 277 459 281 458 4 -2 118 -190 253 -418z"/>
<path d="M1633 2201 c-227 -382 -411 -697 -409 -699 5 -4 806 354 818 366 4 4
7 237 6 518 l-3 509 -412 -694z"/>
<path d="M2110 2381 l0 -512 88 -41 c244 -113 735 -328 739 -324 2 2 -7 21
-20 43 -14 21 -103 171 -200 333 -483 817 -590 996 -598 1005 -5 5 -9 -205 -9
-504z"/>
<path d="M1623 1606 c-222 -99 -403 -183 -403 -186 0 -4 785 -357 820 -368 7
-3 10 125 10 367 0 291 -3 371 -12 370 -7 -1 -194 -83 -415 -183z"/>
<path d="M2110 1419 c0 -349 1 -371 18 -365 58 22 812 362 812 366 0 6 -811
370 -823 370 -4 0 -7 -167 -7 -371z"/>
</g>
</svg>
